HIERARCHY
ROOT joint_Root
{
	OFFSET 0.0 0.0 0.0
	CHANNELS 6 Xposition Yposition Zposition Zrotation Xrotation Yrotation 
	JOINT Hips
	{
		OFFSET -17.1583 93.1646 452.98
		CHANNELS 6 Xposition Yposition Zposition Zrotation Xrotation Yrotation 
		JOINT Spine
		{
			OFFSET 15.7357 0.0 0.0
			CHANNELS 6 Xposition Yposition Zposition Zrotation Xrotation Yrotation 
			JOINT Chest
			{
				OFFSET 8.98455 -0.406207 0.0
				CHANNELS 6 Xposition Yposition Zposition Zrotation Xrotation Yrotation 
				JOINT Neck
				{
					OFFSET 16.3773 0.0 0.0
					CHANNELS 6 Xposition Yposition Zposition Zrotation Xrotation Yrotation 
					JOINT Head
					{
						OFFSET 6.45672 0.0 0.0
						CHANNELS 6 Xposition Yposition Zposition Zrotation Xrotation Yrotation 
						End Site
						{
							OFFSET 0.0 0.0 0.0
						}
					}
				}
				JOINT Shoulder_L
				{
					OFFSET 12.9942 -0.242716 4.98039
					CHANNELS 6 Xposition Yposition Zposition Zrotation Xrotation Yrotation 
					JOINT UpperArm_L
					{
						OFFSET 5.34809 0.0 0.0
						CHANNELS 6 Xposition Yposition Zposition Zrotation Xrotation Yrotation 
						JOINT LowerArm_L
						{
							OFFSET 24.3286 1.87007e-05 0.0
							CHANNELS 6 Xposition Yposition Zposition Zrotation Xrotation Yrotation 
							JOINT Hand_L
							{
								OFFSET 22.2916 0.0 0.0
								CHANNELS 6 Xposition Yposition Zposition Zrotation Xrotation Yrotation 
								End Site
								{
									OFFSET 0.0 0.0 0.0
								}
							}
						}
					}
				}
				JOINT Shoulder_R
				{
					OFFSET 12.9945 -0.242716 -4.98039
					CHANNELS 6 Xposition Yposition Zposition Zrotation Xrotation Yrotation 
					JOINT UpperArm_R
					{
						OFFSET -5.34813 0.0 0.0
						CHANNELS 6 Xposition Yposition Zposition Zrotation Xrotation Yrotation 
						JOINT LowerArm_R
						{
							OFFSET -24.3289 0.000322201 0.0
							CHANNELS 6 Xposition Yposition Zposition Zrotation Xrotation Yrotation 
							JOINT Hand_R
							{
								OFFSET -22.2915 -0.000108084 0.0
								CHANNELS 6 Xposition Yposition Zposition Zrotation Xrotation Yrotation 
								End Site
								{
									OFFSET 0.0 0.0 0.0
								}
							}
						}
					}
				}
			}
		}
		JOINT UpperLeg_L
		{
			OFFSET -2.19248 -6.46944 0.0
			CHANNELS 6 Xposition Yposition Zposition Zrotation Xrotation Yrotation 
			JOINT LowerLeg_L
			{
				OFFSET 39.0811 0.0 -1.23785e-05
				CHANNELS 6 Xposition Yposition Zposition Zrotation Xrotation Yrotation 
				JOINT Foot_L
				{
					OFFSET 40.9854 0.0 -1.26872e-05
					CHANNELS 6 Xposition Yposition Zposition Zrotation Xrotation Yrotation 
					JOINT Toes_L
					{
						OFFSET 11.7543 0.0 0.0
						CHANNELS 6 Xposition Yposition Zposition Zrotation Xrotation Yrotation 
						End Site
						{
							OFFSET 0.0 0.0 0.0
						}
					}
				}
			}
		}
		JOINT UpperLeg_R
		{
			OFFSET -2.19251 6.46944 0.0
			CHANNELS 6 Xposition Yposition Zposition Zrotation Xrotation Yrotation 
			JOINT LowerLeg_R
			{
				OFFSET -39.0811 -0.00228153 -0.0401928
				CHANNELS 6 Xposition Yposition Zposition Zrotation Xrotation Yrotation 
				JOINT Foot_R
				{
					OFFSET -40.9854 0.0 0.0
					CHANNELS 6 Xposition Yposition Zposition Zrotation Xrotation Yrotation 
					JOINT Toes_R
					{
						OFFSET -11.7543 0.0 0.0
						CHANNELS 6 Xposition Yposition Zposition Zrotation Xrotation Yrotation 
						End Site
						{
							OFFSET 0.0 0.0 0.0
						}
					}
				}
			}
		}
	}
}
MOTION
Frames:	5
Frame Time:	0.0333333
0.000000 0.000000 0.000000 0.000000 0.000000 -0.000000 0.269276 92.952500 0.084445 87.083500 -1.454970 0.476479 15.735700 0.000005 -0.000001 65.364700 87.185800 -63.718100 8.984550 -0.406207 -0.000000 -2.613000 -2.494400 3.236880 16.377300 -0.000001 -0.000001 4.757920 2.621390 -2.096060 6.456720 -0.000001 -0.000000 1.571720 2.731020 -3.704090 12.994200 -0.242716 4.980390 -92.607500 7.939160 -71.752200 5.348090 -0.000007 -0.000001 -72.846600 29.792600 0.465727 24.328600 0.000019 0.000005 13.330400 29.532600 -25.674000 22.291600 -0.000001 0.000005 -4.017080 5.055410 6.117630 12.994500 -0.242716 -4.980390 88.334800 5.251190 -72.378100 -5.348130 -0.000001 -0.000004 -70.447600 6.022180 -5.241320 -24.328900 0.000322 -0.000009 -0.370560 -2.075060 -10.099500 -22.291500 -0.000108 -0.000004 8.181020 5.177130 3.286090 -2.192480 -6.469440 -0.000000 -176.882000 -1.060050 -2.142540 39.081100 -0.000007 -0.000012 0.185180 -0.546391 18.722600 40.985400 -0.000006 -0.000013 3.449150 10.612600 -71.827100 11.754300 -0.000000 0.000003 -0.000605 0.177246 -9.387230 -2.192510 6.469440 -0.000001 -176.402000 7.598760 -177.904000 -39.081100 -0.002282 -0.040193 0.017464 -0.068371 11.675200 -40.985400 0.000008 0.000006 -2.074140 3.502060 -68.279600 -11.754300 -0.000006 -0.000006 -0.009022 0.263843 -5.856070
0.000000 0.000000 0.000000 0.000000 0.000000 -0.000000 0.238308 92.968000 0.052206 87.106500 -1.396530 0.387057 15.735700 0.000005 -0.000001 65.501200 87.165200 -63.869200 8.984550 -0.406207 -0.000000 -2.570180 -2.497400 3.208550 16.377300 -0.000001 -0.000001 4.533830 2.554520 -2.014300 6.456720 -0.000001 -0.000000 1.201390 2.662690 -3.344310 12.994200 -0.242716 4.980390 -92.590500 7.882490 -71.741900 5.348090 -0.000007 -0.000001 -72.875900 29.806300 0.329331 24.328600 0.000019 0.000005 13.309900 29.452500 -25.693500 22.291600 -0.000001 0.000005 -3.992830 5.055410 6.117630 12.994500 -0.242716 -4.980390 88.299400 5.351790 -72.342400 -5.348130 -0.000001 -0.000004 -69.661300 4.590090 -5.485640 -24.328900 0.000322 -0.000009 -0.447170 -2.457300 -10.293300 -22.291500 -0.000108 -0.000004 8.262770 5.174530 3.350020 -2.192480 -6.469440 -0.000000 -176.872000 -1.092210 -2.193580 39.081100 -0.000007 -0.000012 0.183148 -0.544045 18.605700 40.985400 -0.000006 -0.000013 3.425640 10.705000 -71.800000 11.754300 -0.000000 0.000003 -0.000630 0.177624 -9.371860 -2.192510 6.469440 -0.000001 -176.395000 7.592200 -177.952000 -39.081100 -0.002282 -0.040193 0.016353 -0.063621 11.563300 -40.985400 0.000008 0.000006 -2.159320 3.462740 -68.232900 -11.754300 -0.000006 -0.000006 -0.009264 0.265723 -5.779250
0.000000 0.000000 0.000000 0.000000 0.000000 -0.000000 0.203414 92.989400 0.017156 87.106500 -1.252260 0.215962 15.735700 0.000005 -0.000001 65.039600 87.156100 -63.403900 8.984550 -0.406207 -0.000000 -2.572040 -2.546910 3.214540 16.377300 -0.000001 -0.000001 4.207950 2.474460 -1.835390 6.456720 -0.000001 -0.000000 0.868260 2.582770 -3.051920 12.994200 -0.242716 4.980390 -92.582600 7.883580 -71.796800 5.348090 -0.000007 -0.000001 -72.888400 29.721100 0.238845 24.328600 0.000019 0.000005 13.340000 29.438900 -25.755400 22.291600 -0.000001 0.000005 -3.975860 5.052380 6.184650 12.994500 -0.242716 -4.980390 88.273600 5.408920 -72.268800 -5.348130 -0.000001 -0.000004 -68.772700 2.878890 -5.701730 -24.328900 0.000322 -0.000009 -0.530048 -2.724230 -10.993500 -22.291500 -0.000108 -0.000004 8.658870 5.173260 3.380990 -2.192480 -6.469440 -0.000000 -176.841000 -1.020140 -2.361710 39.081100 -0.000007 -0.000012 0.181944 -0.544102 18.489900 40.985400 -0.000006 -0.000013 3.394380 10.792000 -71.706600 11.754300 -0.000000 0.000003 -0.000594 0.177093 -9.393460 -2.192510 6.469440 -0.000001 -176.359000 7.670000 -178.081000 -39.081100 -0.002282 -0.040193 0.014653 -0.056116 11.401200 -40.985400 0.000008 0.000006 -2.368240 3.444390 -68.094300 -11.754300 -0.000006 -0.000006 -0.009281 0.265849 -5.774070
0.000000 0.000000 0.000000 0.000000 0.000000 -0.000000 0.175630 93.007400 -0.041551 87.157100 -1.129160 0.032973 15.735700 0.000005 -0.000001 64.309200 87.142500 -62.686300 8.984550 -0.406207 -0.000000 -2.577950 -2.623100 3.187170 16.377300 -0.000001 -0.000001 3.872030 2.393890 -1.658340 6.456720 -0.000001 -0.000000 0.445486 2.544390 -2.596310 12.994200 -0.242716 4.980390 -92.566100 7.841090 -71.814400 5.348090 -0.000007 -0.000001 -72.944900 29.624200 0.191009 24.328600 0.000019 0.000005 13.402200 29.447400 -25.857800 22.291600 -0.000001 0.000005 -3.951720 5.052270 6.187000 12.994500 -0.242716 -4.980390 88.233700 5.518500 -72.220600 -5.348130 -0.000001 -0.000004 -67.792400 0.304240 -5.812600 -24.328900 0.000322 -0.000009 -0.677532 -3.069200 -12.436600 -22.291500 -0.000108 -0.000004 9.086030 5.168000 3.509270 -2.192480 -6.469440 -0.000000 -176.884000 -0.897108 -2.545850 39.081100 -0.000007 -0.000012 0.179715 -0.541234 18.368900 40.985400 -0.000006 -0.000013 3.354390 10.770800 -71.615100 11.754300 -0.000000 0.000003 -0.000583 0.176914 -9.400740 -2.192510 6.469440 -0.000001 -176.361000 7.772310 -178.231000 -39.081100 -0.002282 -0.040193 0.014369 -0.055420 11.258100 -40.985400 0.000008 0.000006 -2.309110 3.454180 -67.973500 -11.754300 -0.000006 -0.000006 -0.008951 0.263292 -5.878620
0.000000 0.000000 0.000000 0.000000 0.000000 -0.000000 0.137852 93.027500 -0.112894 87.156700 -1.030320 -0.137718 15.735700 0.000005 -0.000001 63.683600 87.127500 -62.055800 8.984550 -0.406207 -0.000000 -2.577390 -2.692870 3.195630 16.377300 -0.000001 -0.000001 3.549460 2.286150 -1.447170 6.456720 -0.000001 -0.000000 0.027013 2.525640 -2.080590 12.994200 -0.242716 4.980390 -92.557100 7.827850 -71.845800 5.348090 -0.000007 -0.000001 -72.962600 29.557700 0.143353 24.328600 0.000019 0.000005 13.419100 29.416600 -25.908600 22.291600 -0.000001 0.000005 -3.733900 5.053510 6.159820 12.994500 -0.242716 -4.980390 88.194900 5.633940 -72.202500 -5.348130 -0.000001 -0.000004 -66.760100 -2.695110 -5.753650 -24.328900 0.000322 -0.000009 -1.109650 -4.194190 -14.819400 -22.291500 -0.000108 -0.000004 9.556250 5.158480 3.739580 -2.192480 -6.469440 -0.000000 -176.863000 -0.809483 -2.732600 39.081100 -0.000007 -0.000012 0.178314 -0.539758 18.281800 40.985400 -0.000006 -0.000013 3.293690 10.712000 -71.544700 11.754300 -0.000000 0.000003 -0.000635 0.177705 -9.368600 -2.192510 6.469440 -0.000001 -176.296000 7.772390 -178.390000 -39.081100 -0.002282 -0.040193 0.013598 -0.052198 11.121900 -40.985400 0.000008 0.000006 -2.363340 3.341660 -67.896200 -11.754300 -0.000006 -0.000006 -0.009224 0.265413 -5.791920
